<?xml version="1.0" standalone="no"?><!DOCTYPE svg PUBLIC "-//W3C//DTD SVG 1.1//EN" "http://www.w3.org/Graphics/SVG/1.1/DTD/svg11.dtd"><svg t="1614301697456" class="icon" viewBox="0 0 1024 1024" version="1.1" xmlns="http://www.w3.org/2000/svg" p-id="3266" xmlns:xlink="http://www.w3.org/1999/xlink" width="200" height="200"><defs><style type="text/css"></style></defs><path d="M343.25 512H230.75c-61.875 0-112.5 50.625-112.5 112.5v112.5c0 61.875 50.625 112.5 112.5 112.5h112.5c61.875 0 112.5-50.625 112.5-112.5V624.5c0-61.875-50.625-112.5-112.5-112.5z m56.25 225c0 30.9375-25.3125 56.25-56.25 56.25H230.75c-30.9375 0-56.25-25.3125-56.25-56.25V624.5c0-30.9375 25.3125-56.25 56.25-56.25h112.5c30.9375 0 56.25 25.3125 56.25 56.25v112.5zM737 118.25H624.5c-61.875 0-112.5 50.625-112.5 112.5v112.5c0 61.875 50.625 112.5 112.5 112.5h112.5c61.875 0 112.5-50.625 112.5-112.5V230.75c0-61.875-50.625-112.5-112.5-112.5z m56.25 225c0 30.9375-25.3125 56.25-56.25 56.25H624.5c-30.9375 0-56.25-25.3125-56.25-56.25V230.75c0-30.9375 25.3125-56.25 56.25-56.25h112.5c30.9375 0 56.25 25.3125 56.25 56.25v112.5z m-56.25 168.75H624.5c-61.875 0-112.5 50.625-112.5 112.5v112.5c0 61.875 50.625 112.5 112.5 112.5h112.5c61.875 0 112.5-50.625 112.5-112.5V624.5c0-61.875-50.625-112.5-112.5-112.5z m56.25 225c0 30.9375-25.3125 56.25-56.25 56.25H624.5c-30.9375 0-56.25-25.3125-56.25-56.25V624.5c0-30.9375 25.3125-56.25 56.25-56.25h112.5c30.9375 0 56.25 25.3125 56.25 56.25v112.5zM343.25 118.25H230.75c-61.875 0-112.5 50.625-112.5 112.5v112.5c0 61.875 50.625 112.5 112.5 112.5h112.5c61.875 0 112.5-50.625 112.5-112.5V230.75c0-61.875-50.625-112.5-112.5-112.5z m56.25 225c0 30.9375-25.3125 56.25-56.25 56.25H230.75c-30.9375 0-56.25-25.3125-56.25-56.25V230.75c0-30.9375 25.3125-56.25 56.25-56.25h112.5c30.9375 0 56.25 25.3125 56.25 56.25v112.5z" fill="#d81e06" p-id="3267"></path></svg>