<?xml version="1.0" standalone="no"?><!DOCTYPE svg PUBLIC "-//W3C//DTD SVG 1.1//EN" "http://www.w3.org/Graphics/SVG/1.1/DTD/svg11.dtd"><svg t="1614301792462" class="icon" viewBox="0 0 1024 1024" version="1.1" xmlns="http://www.w3.org/2000/svg" p-id="7114" xmlns:xlink="http://www.w3.org/1999/xlink" width="200" height="200"><defs><style type="text/css"></style></defs><path d="M891.017386 516.991472 513.216535 176.249895c-0.202663-0.182876-0.517449-0.183076-0.720312-0.0006L135.715681 515.072373c-6.845559 6.156026-8.979512 16.458441-3.618347 23.858224 6.540166 9.02708 19.573329 10.139326 27.614278 2.886243l352.757231-317.205135c0.202862-0.182476 0.517649-0.182276 0.720312 0.0006l352.773619 318.17168c3.542998 3.193035 8.040349 4.771365 12.528905 4.771365 4.886687 0 9.775972-1.872331 13.382327-5.597805C898.794114 534.834174 898.413572 523.655554 891.017386 516.991472L891.017386 516.991472zM775.620425 523.997122c-10.122137 0-18.33297 7.915233-18.33297 17.666422l0 270.385079c0 0.281209-0.23624 0.509055-0.527842 0.509055l-145.611875 0c-0.291402 0-0.527842-0.227846-0.527842-0.509055l0-187.429123c0-0.281209-0.23624-0.509055-0.527842-0.509055l-194.49833 0c-0.291402 0-0.527842 0.228045-0.527842 0.509055l0 187.429123c0 0.281209-0.23624 0.509055-0.527842 0.509055l-145.606479 0c-0.291402 0-0.527842-0.227846-0.527842-0.509055L268.403718 543.016227c0-9.049065-6.388269-17.586077-15.67877-18.839627-11.317727-1.526965-20.989769 6.897324-20.989769 17.486944l0 305.716724c0 0.281209 0.23624 0.509055 0.527842 0.509055l218.943756 0c0.291402 0 0.527842-0.227846 0.527842-0.509055l0-187.428324c0-0.281209 0.23624-0.509055 0.527842-0.509055l121.16545 0c0.291402 0 0.527842 0.228045 0.527842 0.509055l0 187.428324c0 0.281209 0.23624 0.509055 0.527842 0.509055l218.93856 0c0.291402 0 0.527842-0.228045 0.527842-0.509055l0-305.716924C793.950797 531.912355 785.738166 523.997122 775.620425 523.997122L775.620425 523.997122zM647.289434 270.772808l109.470179 0c0.291402 0 0.527842 0.228045 0.527842 0.509055l0 92.346789c0 9.04147 6.367283 17.58128 15.647591 18.851619 11.309932 1.54835 21.015751-6.869542 21.015751-17.486344l0-129.044708c0-0.281209-0.23624-0.509055-0.527842-0.509055l-144.74946 0c-9.377242 0-18.231239 6.152828-19.534156 15.110555C627.553815 261.451928 636.294089 270.772808 647.289434 270.772808L647.289434 270.772808z" p-id="7115" fill="#2c2c2c"></path></svg>